<?xml version="1.0" encoding="UTF-8"?><svg id="b" xmlns="http://www.w3.org/2000/svg" viewBox="0 0 256 256"><g id="c"><rect width="256" height="256" style="fill:none;"/><path d="M75.71,126.39c-8.1,0-15.26-1.81-21.48-5.41-6.22-3.61-11.05-8.71-14.49-15.32-3.44-6.6-5.16-14.4-5.16-23.4,0-7.77,1.72-15.04,5.16-21.81,3.44-6.77,8.3-12.24,14.57-16.4,6.27-4.16,13.57-6.24,21.9-6.24,4.66,0,9.21,.64,13.65,1.91,4.44,1.28,8.47,3.47,12.07,6.58,3.6,3.11,6.49,7.33,8.66,12.66,2.17,5.33,3.19,11.99,3.08,19.98l-54.62,1c0,5.99,.75,11.38,2.25,16.15,1.5,4.77,3.97,8.55,7.41,11.32,3.44,2.78,8.05,4.16,13.82,4.16,2.22,0,4.75-.39,7.58-1.17,2.83-.78,5.72-2.08,8.66-3.91,2.94-1.83,5.69-4.3,8.24-7.41l7.49,6.99c-4,5.66-8.27,9.96-12.82,12.9-4.55,2.94-9.07,4.91-13.57,5.91-4.5,1-8.63,1.5-12.41,1.5Zm-15.65-58.11h30.64c-.11-4.66-.75-8.35-1.92-11.07s-2.75-4.69-4.75-5.91-4.33-1.83-6.99-1.83c-4.89,0-8.72,1.75-11.49,5.24-2.78,3.5-4.61,8.02-5.5,13.57Z" style="fill:#fff;"/><path d="M179.59,126.39c-3.33,0-6.55-.39-9.66-1.17-3.11-.78-5.89-2.25-8.33-4.41-2.44-2.16-4.39-5.35-5.83-9.57-1.44-4.22-2.16-9.83-2.16-16.82l.33-40.13h-11.32v-13.82c3.44-.11,6.77-1.28,9.99-3.5,3.22-2.22,5.97-5.11,8.24-8.66,2.27-3.55,3.8-7.27,4.58-11.16h12.32l-.17,23.31h21.15v12.82l-21.15,.5-.17,40.96c0,2.55,.25,5.08,.75,7.58s1.47,4.55,2.91,6.16c1.44,1.61,3.55,2.42,6.33,2.42,1.55,0,3.69-.55,6.41-1.66,2.72-1.11,5.63-3.89,8.74-8.33l7.99,7.49c-3,4.44-6.11,7.88-9.33,10.32-3.22,2.44-6.3,4.22-9.24,5.33-2.94,1.11-5.52,1.77-7.74,2-2.22,.22-3.78,.33-4.66,.33Z" style="fill:#fff;"/><path d="M67.3,232.07l-26.31-57.78c-1.22-2.77-2.08-4.88-2.58-6.33-.5-1.44-.83-2.69-1-3.75-.17-1.05-.42-2.25-.75-3.58l-6.16,.33v-12.66h38.97v10.66c-2.33,.11-3.89,.78-4.66,2-.78,1.22-1.06,2.81-.83,4.75,.22,1.94,.72,4.03,1.5,6.24l8.66,21.32c.89,2.11,1.78,4.27,2.67,6.49,.89,2.22,1.77,4.44,2.66,6.66h.16c.89-2.33,1.75-4.66,2.58-6.99s1.64-4.66,2.42-6.99l7.16-20.32c1-2.77,1.92-4.99,2.75-6.66s1.75-3.39,2.75-5.16l-10.32,.67v-12.66h31.64v10.66c-2.55,.45-4.83,1.86-6.83,4.25-2,2.39-3.72,5.05-5.16,7.99-1.44,2.94-2.61,5.52-3.5,7.74l-21.31,53.12h-14.49Z" style="fill:#fff;"/><path d="M177.1,232.07c-7.99,0-15.21-1.72-21.65-5.16-6.44-3.44-11.52-8.35-15.24-14.74-3.72-6.38-5.58-13.91-5.58-22.56,0-9.21,1.91-17.29,5.75-24.23,3.83-6.94,8.93-12.32,15.32-16.15,6.38-3.83,13.35-5.75,20.9-5.75,7.99,0,15.15,1.72,21.48,5.16,6.33,3.44,11.32,8.35,14.99,14.74,3.66,6.38,5.49,14.02,5.49,22.9,0,9.33-1.78,17.43-5.33,24.31-3.55,6.88-8.44,12.18-14.65,15.9-6.22,3.72-13.38,5.58-21.48,5.58Zm.67-11.82c4.44-.11,7.8-1.67,10.07-4.66,2.27-3,3.86-6.77,4.75-11.32,.89-4.55,1.33-9.16,1.33-13.82,0-4.11-.31-8.27-.92-12.49-.61-4.22-1.58-8.05-2.91-11.49-1.33-3.44-3.14-6.22-5.41-8.33-2.28-2.11-5.08-3.11-8.41-3-4.33,.11-7.74,1.66-10.24,4.66-2.5,3-4.27,6.74-5.33,11.24-1.06,4.5-1.58,9.19-1.58,14.07,0,5.66,.61,11.22,1.83,16.65,1.22,5.44,3.19,9.91,5.91,13.41,2.72,3.5,6.35,5.19,10.91,5.08Z" style="fill:#fff;"/></g></svg>