<svg width="234" height="154" viewBox="0 0 234 154" fill="none" xmlns="http://www.w3.org/2000/svg">
<g filter="url(#filter0_b_59_885)">
<path d="M155.272 119.143C188.31 120.202 218.464 105.701 223.225 74.9546C228.898 38.3173 192.843 29.4702 165.226 18.6527C137.61 7.83525 82.0196 24.1179 59.6477 38.4397C37.2757 52.7616 0.996973 86.7493 16.5088 121.16C32.0206 155.57 74.2521 147.655 85.2612 138.128C96.2703 128.602 113.975 117.82 155.272 119.143Z" fill="#ABED26" fill-opacity="0.2"/>
</g>
<path d="M35.7621 91.1719L36.6217 90.7831C37.9559 93.0076 40.1195 93.6628 42.5643 92.5573C43.0673 92.3298 43.4832 92.0756 43.8383 91.801L43.363 90.7497C43.015 91.0229 42.58 91.2693 42.0834 91.4938C40.3851 92.2618 38.8511 91.7885 37.8368 90.2347L41.0856 88.7657L40.7462 88.0152L37.4425 89.509L37.1002 88.7521C37.06 88.6631 37.0201 88.575 36.9864 88.4831L40.2844 86.9918L39.9454 86.2421L36.7388 87.6921C36.3585 86.0153 37.0375 84.6494 38.6582 83.9166C39.1547 83.6921 39.6267 83.5274 40.0646 83.4531L39.5896 82.4025C39.1016 82.4922 38.6269 82.6433 38.1769 82.8523C35.8089 83.9231 34.8526 85.8838 35.5083 88.2475L34.6211 88.6487L34.9605 89.3991L35.7773 89.0298L36.2399 90.0528L35.4231 90.4222L35.7621 91.1719Z" fill="#ABED26"/>
<path d="M62.7016 75.5068L63.641 75.5945C63.6994 78.1877 65.2552 79.8278 67.9267 80.0771C68.4764 80.1285 68.9636 80.1133 69.4081 80.0505L69.5153 78.9017C69.0778 78.9669 68.5778 78.9657 68.0352 78.9151C66.1793 78.7418 65.0807 77.5714 64.9683 75.7192L68.5183 76.0506L68.5948 75.2305L64.9848 74.8935L65.062 74.0664C65.0711 73.9692 65.0801 73.8729 65.0962 73.7763L68.7001 74.1127L68.7765 73.2935L65.2725 72.9664C65.772 71.3212 67.0379 70.4704 68.8089 70.6357C69.3515 70.6863 69.8432 70.7768 70.2604 70.9289L70.3676 69.781C69.8992 69.6174 69.4119 69.5138 68.9175 69.4727C66.3299 69.2312 64.5284 70.4616 63.9285 72.8401L62.959 72.7496L62.8824 73.5697L63.775 73.653L63.6707 74.7709L62.7781 74.6876L62.7016 75.5068Z" fill="#ABED26"/>
<path d="M49.3415 124.039L50.2809 124.126C50.3393 126.72 51.8951 128.36 54.5666 128.609C55.1163 128.66 55.6035 128.645 56.048 128.582L56.1552 127.434C55.7177 127.499 55.2177 127.498 54.6751 127.447C52.8192 127.274 51.7206 126.103 51.6082 124.251L55.1582 124.583L55.2347 123.763L51.6247 123.426L51.7019 122.598C51.711 122.501 51.7199 122.405 51.7361 122.308L55.34 122.645L55.4164 121.825L51.9124 121.498C52.4119 119.853 53.6778 119.002 55.4488 119.168C55.9914 119.218 56.4831 119.309 56.9003 119.461L57.0075 118.313C56.539 118.149 56.0518 118.046 55.5573 118.005C52.9698 117.763 51.1683 118.994 50.5683 121.372L49.5989 121.282L49.5223 122.102L50.4149 122.185L50.3106 123.303L49.418 123.22L49.3415 124.039Z" fill="#ABED26"/>
<path d="M35.9529 111.491C36.5749 112.818 38.0266 113.389 39.7392 112.903L40.1064 113.903L40.9428 113.596L40.5757 112.596C42.342 111.781 43.091 110.331 42.5289 108.8C42.0489 107.492 41.0117 107.014 39.2442 107.18L38.6088 107.238L37.4609 104.112C38.3939 103.872 39.1833 104.146 39.6088 104.831L40.7876 104.398C40.1715 103.132 38.723 102.592 37.0808 103.076L36.7161 102.083L35.8797 102.39L36.252 103.404C34.7665 104.164 34.0741 105.577 34.5825 106.962C35.0214 108.158 36.1068 108.72 37.5971 108.577L38.1351 108.531L39.3521 111.846C38.3794 112.045 37.5548 111.759 37.1245 111.061L35.9529 111.491ZM37.5142 107.338C36.5983 107.429 35.982 107.13 35.7432 106.48C35.4582 105.704 35.8123 104.923 36.6348 104.447L37.6899 107.321L37.5142 107.338ZM39.3552 108.409C40.4848 108.296 41.0997 108.57 41.3744 109.319C41.7056 110.221 41.2639 111.065 40.1956 111.561L39.0498 108.44L39.3549 108.408L39.3552 108.409Z" fill="#ABED26"/>
<path d="M103.911 95.9077C103.871 97.373 104.912 98.5349 106.661 98.8693L106.54 99.9277L107.425 100.029L107.546 98.9703C109.491 99.0343 110.811 98.0748 110.996 96.4541C111.154 95.0702 110.441 94.1777 108.787 93.5323L108.193 93.2996L108.571 89.9903C109.512 90.1947 110.095 90.7938 110.167 91.5974L111.415 91.7397C111.433 90.331 110.381 89.1987 108.696 88.8945L108.816 87.843L107.931 87.742L107.808 88.8152C106.14 88.8277 104.887 89.7798 104.719 91.2456C104.575 92.5111 105.293 93.5003 106.688 94.0422L107.19 94.2423L106.789 97.7509C105.831 97.4916 105.222 96.8667 105.151 96.0492L103.911 95.9077ZM107.17 92.8972C106.311 92.5673 105.894 92.0242 105.973 91.3357C106.067 90.514 106.733 89.9755 107.682 89.9189L107.335 92.961L107.17 92.8972ZM108.335 94.6807C109.395 95.0864 109.821 95.6077 109.731 96.3998C109.622 97.3546 108.848 97.9109 107.671 97.8744L108.048 94.5712L108.335 94.6798L108.335 94.6807Z" fill="#ABED26"/>
<path d="M11.419 93.5134C11.3791 94.9787 12.4202 96.1406 14.1687 96.475L14.0479 97.5334L14.9332 97.6344L15.0539 96.576C16.9984 96.64 18.3184 95.6805 18.5034 94.0598C18.6613 92.6759 17.9489 91.7834 16.2952 91.138L15.7009 90.9053L16.0785 87.596C17.0199 87.8004 17.6024 88.3995 17.6749 89.2031L18.9226 89.3454C18.9406 87.9367 17.8884 86.8044 16.2035 86.5002L16.3235 85.4488L15.4383 85.3478L15.3158 86.421C13.6472 86.4334 12.3942 87.3855 12.227 88.8513C12.0826 90.1168 12.8003 91.106 14.1958 91.6479L14.6975 91.848L14.2971 95.3566C13.3388 95.0974 12.73 94.4724 12.6591 93.6549L11.419 93.5134ZM14.6781 90.5029C13.819 90.173 13.402 89.6299 13.4806 88.9414C13.5743 88.1198 14.2411 87.5813 15.1899 87.5246L14.8428 90.5667L14.6781 90.5029ZM15.8426 92.2864C16.9028 92.6922 17.3291 93.2134 17.2388 94.0055C17.1298 94.9603 16.3562 95.5166 15.179 95.4801L15.5558 92.177L15.8427 92.2855L15.8426 92.2864Z" fill="#ABED26"/>
<path d="M74.7864 93.1324C74.3759 94.5395 75.0879 95.9276 76.6943 96.6948L76.3089 97.6879L77.1395 98.0103L77.5249 97.0172C79.3895 97.5727 80.9098 96.9797 81.5 95.459C82.004 94.1604 81.5415 93.1164 80.1057 92.0724L79.59 91.6965L80.7952 88.5914C81.6538 89.028 82.0653 89.7553 81.9314 90.551L83.1021 91.0054C83.4771 89.6473 82.7467 88.2851 81.1942 87.5632L81.5771 86.5766L80.7465 86.2542L80.3557 87.2612C78.7386 86.8497 77.2849 87.4527 76.7512 88.828C76.2903 90.0154 76.7334 91.1544 77.9457 92.0328L78.3802 92.3536L77.1024 95.6457C76.2413 95.1517 75.811 94.3927 75.9499 93.584L74.7864 93.1324ZM78.7028 91.0477C77.9556 90.5105 77.6901 89.8793 77.9409 89.2333C78.2401 88.4624 79.0217 88.1107 79.9538 88.2968L78.8459 91.1511L78.7028 91.0477ZM79.3765 93.0683C80.2991 93.7299 80.5791 94.3422 80.2907 95.0854C79.9429 95.9814 79.0534 96.323 77.924 95.989L79.1269 92.8897L79.3768 93.0675L79.3765 93.0683Z" fill="#ABED26"/>
<path d="M61.6966 98.4865L60.4846 96.3287L62.473 95.2118L62.0272 94.4181L60.0388 95.5351L59.4348 94.4599L61.4224 93.3434L60.9766 92.5498L59.2963 93.4936L59.2128 86.9251L57.8317 87.7009L58.0487 93.3306L57.9788 93.3699L53.2841 90.2553L51.8964 91.0348L57.455 94.5279L55.76 95.48L56.2063 96.2744L58.2159 95.1457L58.8198 96.2208L56.8119 97.3487L57.2572 98.1416L59.2652 97.0137L60.4772 99.1714L61.6982 98.4856L61.6966 98.4865Z" fill="#ABED26"/>
<path d="M18.8002 121.561L17.5881 119.404L19.5766 118.287L19.1308 117.493L17.1423 118.61L16.5384 117.535L18.526 116.418L18.0802 115.625L16.3999 116.569L16.3164 110L14.9352 110.776L15.1523 116.406L15.0824 116.445L10.3877 113.33L9 114.11L14.5586 117.603L12.8636 118.555L13.3099 119.349L15.3195 118.221L15.9234 119.296L13.9154 120.424L14.3608 121.217L16.3687 120.089L17.5808 122.246L18.8018 121.561L18.8002 121.561Z" fill="#ABED26"/>
<path d="M83.2626 72.1585L83.829 69.7494L86.0491 70.2713L86.2575 69.3852L84.0373 68.8632L84.3196 67.6628L86.5388 68.1845L86.7471 67.2984L84.871 66.8573L89.2517 61.9622L87.7096 61.5996L84.0622 65.8935L83.9841 65.8752L82.6321 60.4059L81.0828 60.0416L82.8152 66.3739L80.9227 65.929L80.7142 66.8161L82.9579 67.3436L82.6756 68.5441L80.4337 68.017L80.2256 68.9022L82.4675 69.4293L81.9011 71.8384L83.2644 72.159L83.2626 72.1585Z" fill="#ABED26"/>
<path d="M119.317 76.3879L118.279 74.1411L120.349 73.1849L119.968 72.3585L117.897 73.3146L117.38 72.1951L119.45 71.2393L119.068 70.4128L117.319 71.2209L117.755 64.6663L116.317 65.3305L116.088 70.9597L116.015 70.9934L111.581 67.5173L110.136 68.1846L115.401 72.1063L113.636 72.9214L114.018 73.7486L116.111 72.7823L116.628 73.9019L114.537 74.8674L114.918 75.693L117.009 74.7275L118.047 76.9743L119.318 76.3871L119.317 76.3879Z" fill="#ABED26"/>
<path d="M97.2424 79.8528L97.9651 79.2463C99.8504 81.0278 102.111 81.0743 104.166 79.3496C104.589 78.9948 104.921 78.6376 105.188 78.2774L104.447 77.3935C104.186 77.7505 103.833 78.1053 103.416 78.4556C101.988 79.6536 100.383 79.6122 98.9869 78.3901L101.718 76.0983L101.189 75.4673L98.4113 77.7979L97.8773 77.1615C97.8145 77.0867 97.7523 77.0126 97.695 76.9332L100.468 74.6067L99.9389 73.9764L97.243 76.2385C96.424 74.7267 96.7088 73.2283 98.0714 72.0849C98.4889 71.7346 98.8989 71.4486 99.3004 71.2588L98.5593 70.3756C98.1137 70.5937 97.6975 70.8674 97.3206 71.1902C95.3298 72.8607 94.9385 75.0069 96.2083 77.1056L95.4624 77.7314L95.9918 78.3624L96.6785 77.7862L97.4002 78.6463L96.7135 79.2225L97.2424 79.8528Z" fill="#ABED26"/>
<path d="M122.523 90.263L123.451 90.0937C124.208 92.5748 126.149 93.7338 128.788 93.2524C129.331 93.1533 129.796 93.0072 130.207 92.8267L130 91.6916C129.597 91.8726 129.115 92.0064 128.579 92.1042C126.745 92.4386 125.371 91.6084 124.763 89.8554L128.27 89.2157L128.123 88.4054L124.556 89.0559L124.407 88.2387C124.389 88.1426 124.372 88.0475 124.361 87.9501L127.922 87.3007L127.774 86.4913L124.312 87.1227C124.349 85.4037 125.338 84.2426 127.088 83.9235C127.624 83.8257 128.122 83.7801 128.564 83.8139L128.358 82.6797C127.862 82.6486 127.365 82.6805 126.878 82.7745C124.322 83.2407 122.919 84.912 122.984 87.3641L122.026 87.5388L122.174 88.3491L123.056 88.1882L123.257 89.2927L122.375 89.4536L122.523 90.263Z" fill="#ABED26"/>
<path d="M132.746 127.91L133.675 127.741C134.431 130.222 136.372 131.381 139.012 130.899C139.555 130.8 140.02 130.654 140.431 130.474L140.224 129.339C139.82 129.52 139.338 129.653 138.802 129.751C136.969 130.086 135.595 129.255 134.986 127.502L138.494 126.863L138.346 126.052L134.779 126.703L134.63 125.886C134.613 125.79 134.595 125.694 134.585 125.597L138.145 124.948L137.998 124.138L134.536 124.77C134.572 123.051 135.561 121.89 137.311 121.57C137.847 121.473 138.345 121.427 138.788 121.461L138.581 120.327C138.086 120.296 137.589 120.327 137.102 120.421C134.545 120.888 133.143 122.559 133.207 125.011L132.25 125.186L132.397 125.996L133.279 125.835L133.481 126.94L132.599 127.101L132.746 127.91Z" fill="#ABED26"/>
<path d="M90.2458 108.922L91.174 108.753C91.9306 111.234 93.8715 112.393 96.5111 111.912C97.0542 111.813 97.5192 111.666 97.9302 111.486L97.7232 110.351C97.3195 110.532 96.8378 110.666 96.3017 110.763C94.468 111.098 93.0941 110.268 92.4857 108.515L95.9932 107.875L95.8454 107.065L92.2785 107.715L92.1295 106.898C92.112 106.802 92.0946 106.707 92.0841 106.609L95.6449 105.96L95.4973 105.151L92.0351 105.782C92.0717 104.063 93.0608 102.902 94.8106 102.583C95.3467 102.485 95.8446 102.439 96.2874 102.473L96.0805 101.339C95.5854 101.308 95.0882 101.34 94.6011 101.434C92.0444 101.9 90.6422 103.571 90.7069 106.023L89.749 106.198L89.8968 107.008L90.7787 106.847L90.9801 107.952L90.0982 108.113L90.2458 108.922Z" fill="#ABED26"/>
<path d="M159.802 106.917L160.52 106.305C162.419 108.072 164.679 108.101 166.722 106.361C167.142 106.003 167.471 105.643 167.736 105.281L166.988 104.403C166.729 104.762 166.38 105.119 165.965 105.473C164.546 106.681 162.941 106.652 161.536 105.441L164.249 103.128L163.715 102.501L160.955 104.853L160.417 104.221C160.353 104.146 160.291 104.073 160.233 103.994L162.988 101.646L162.454 101.02L159.775 103.302C158.945 101.797 159.219 100.296 160.572 99.1426C160.987 98.7892 161.395 98.5 161.795 98.3072L161.047 97.4296C160.603 97.6511 160.189 97.928 159.815 98.2536C157.837 99.9391 157.462 102.088 158.747 104.177L158.006 104.809L158.54 105.436L159.223 104.854L159.951 105.709L159.269 106.29L159.802 106.917Z" fill="#ABED26"/>
<path d="M111.298 130.588C112.255 131.698 113.807 131.856 115.325 130.926L115.949 131.789L116.671 131.268L116.047 130.404C117.528 129.142 117.858 127.544 116.903 126.221C116.087 125.092 114.96 124.912 113.303 125.548L112.707 125.777L110.757 123.076C111.591 122.593 112.425 122.644 113.019 123.189L114.038 122.454C113.102 121.4 111.562 121.272 110.111 122.182L109.492 121.324L108.77 121.845L109.402 122.721C108.177 123.854 107.892 125.402 108.755 126.598C109.501 127.631 110.698 127.879 112.094 127.339L112.6 127.149L114.667 130.013C113.784 130.466 112.913 130.414 112.31 129.858L111.298 130.588ZM111.68 126.168C110.822 126.503 110.148 126.382 109.743 125.82C109.259 125.15 109.389 124.303 110.052 123.622L111.844 126.104L111.68 126.168ZM113.741 126.702C114.798 126.288 115.465 126.386 115.931 127.033C116.494 127.812 116.297 128.744 115.402 129.51L113.456 126.814L113.741 126.701L113.741 126.702Z" fill="#ABED26"/>
<path d="M151.862 86.392C152.219 87.8136 153.535 88.6512 155.309 88.5009L155.479 89.5526L156.359 89.4108L156.189 88.3591C158.078 87.8956 159.09 86.6152 158.831 85.0048C158.609 83.6297 157.682 82.9628 155.915 82.788L155.28 82.7244L154.75 79.4361C155.712 79.3787 156.434 79.7981 156.721 80.5523L157.961 80.3524C157.598 78.9912 156.279 78.1851 154.575 78.3472L154.406 77.3025L153.527 77.4443L153.699 78.5107C152.095 78.9733 151.146 80.2285 151.381 81.6849C151.584 82.9425 152.542 83.7011 154.032 83.8459L154.569 83.9031L155.131 87.3894C154.138 87.3986 153.383 86.9613 153.094 86.1933L151.862 86.392ZM154.187 82.6132C153.271 82.5276 152.723 82.1173 152.612 81.4331C152.481 80.6167 152.977 79.9181 153.875 79.6074L154.363 82.6301L154.187 82.6132ZM155.79 84.0159C156.92 84.1203 157.471 84.507 157.598 85.294C157.751 86.2428 157.157 86.9874 156.013 87.2702L155.484 83.988L155.79 84.015L155.79 84.0159Z" fill="#ABED26"/>
<path d="M182.18 109.87C182.537 111.291 183.853 112.129 185.627 111.979L185.796 113.03L186.676 112.888L186.506 111.837C188.396 111.373 189.408 110.093 189.148 108.483C188.926 107.107 187.999 106.44 186.233 106.266L185.598 106.202L185.068 102.914C186.029 102.856 186.752 103.276 187.039 104.03L188.279 103.83C187.915 102.469 186.597 101.663 184.892 101.825L184.724 100.78L183.844 100.922L184.016 101.988C182.413 102.451 181.463 103.706 181.698 105.163C181.901 106.42 182.859 107.179 184.349 107.324L184.886 107.381L185.448 110.867C184.456 110.876 183.701 110.439 183.412 109.671L182.18 109.87ZM184.504 106.091C183.588 106.005 183.04 105.595 182.93 104.911C182.798 104.094 183.295 103.396 184.193 103.085L184.68 106.108L184.504 106.091ZM186.107 107.494C187.238 107.598 187.789 107.985 187.916 108.772C188.069 109.72 187.474 110.465 186.331 110.748L185.802 107.466L186.107 107.493L186.107 107.494Z" fill="#ABED26"/>
<path d="M139.078 107.394C139.063 108.86 140.124 110.004 141.878 110.309L141.775 111.37L142.661 111.456L142.764 110.395C144.71 110.427 146.013 109.445 146.171 107.821C146.305 106.435 145.578 105.555 143.914 104.937L143.316 104.715L143.637 101.399C144.582 101.588 145.175 102.177 145.261 102.979L146.511 103.101C146.505 101.692 145.434 100.577 143.744 100.302L143.846 99.2483L142.959 99.1622L142.855 100.237C141.187 100.278 139.95 101.251 139.808 102.719C139.685 103.987 140.419 104.964 141.823 105.482L142.328 105.674L141.987 109.189C141.025 108.946 140.405 108.331 140.321 107.515L139.078 107.394ZM142.286 104.329C141.422 104.014 140.996 103.478 141.063 102.788C141.142 101.965 141.8 101.416 142.748 101.343L142.452 104.39L142.286 104.329ZM143.481 106.093C144.548 106.481 144.983 106.995 144.906 107.788C144.813 108.745 144.049 109.314 142.871 109.298L143.192 105.988L143.481 106.092L143.481 106.093Z" fill="#ABED26"/>
<path d="M81.6201 129.349C81.6049 130.814 82.6654 131.958 84.4193 132.263L84.3163 133.324L85.2032 133.41L85.3061 132.349C87.2513 132.381 88.5551 131.399 88.7126 129.775C88.8472 128.389 88.1199 127.509 86.4555 126.891L85.8575 126.669L86.1792 123.353C87.1239 123.542 87.7164 124.131 87.8025 124.933L89.0524 125.055C89.0467 123.646 87.9755 122.531 86.2858 122.256L86.388 121.202L85.5012 121.116L85.3968 122.191C83.7287 122.232 82.4919 123.205 82.3494 124.673C82.2263 125.941 82.9606 126.918 84.3651 127.437L84.87 127.628L84.5289 131.143C83.5663 130.9 82.9471 130.285 82.8623 129.469L81.6201 129.349ZM84.828 126.284C83.9634 125.968 83.5374 125.432 83.6043 124.742C83.6842 123.919 84.3418 123.37 85.2895 123.297L84.9937 126.345L84.828 126.284ZM86.0223 128.047C87.0893 128.435 87.5243 128.949 87.4473 129.742C87.3545 130.699 86.5903 131.268 85.4126 131.252L85.7338 127.943L86.0224 128.046L86.0223 128.047Z" fill="#ABED26"/>
<path d="M127.761 112.66L126.012 110.91L127.625 109.298L126.981 108.654L125.368 110.266L124.496 109.394L126.109 107.782L125.465 107.139L124.102 108.501L122.248 102.199L121.127 103.319L122.857 108.681L122.8 108.738L117.439 107.007L116.313 108.132L122.608 109.994L121.234 111.369L121.878 112.013L123.508 110.384L124.38 111.256L122.751 112.884L123.394 113.527L125.023 111.899L126.772 113.649L127.763 112.659L127.761 112.66Z" fill="#ABED26"/>
<path d="M73.1535 116.231L71.4037 114.481L73.0166 112.868L72.373 112.225L70.7601 113.837L69.8883 112.965L71.5005 111.353L70.8569 110.709L69.4939 112.072L67.6396 105.77L66.5193 106.89L68.2487 112.252L68.192 112.309L62.8306 110.578L61.705 111.703L68.0004 113.565L66.6255 114.94L67.2698 115.584L68.8998 113.954L69.7717 114.827L68.143 116.455L68.7859 117.098L70.4146 115.47L72.1643 117.22L73.1548 116.23L73.1535 116.231Z" fill="#ABED26"/>
<path d="M141.416 81.4861L141.31 79.0135L143.589 78.9165L143.55 78.007L141.272 78.1041L141.219 76.872L143.497 76.775L143.458 75.8655L141.532 75.9475L144.428 70.0512L142.846 70.1186L140.493 75.238L140.413 75.2414L137.634 70.3405L136.044 70.4082L139.423 76.0373L137.48 76.1201L137.519 77.0305L139.822 76.9324L139.874 78.1645L137.573 78.2625L137.612 79.171L139.913 79.073L140.018 81.5456L141.417 81.4861L141.416 81.4861Z" fill="#ABED26"/>
<path d="M179.679 78.7486L178.073 76.8654L179.809 75.3856L179.218 74.6929L177.483 76.1728L176.682 75.2344L178.417 73.7552L177.826 73.0626L176.36 74.3131L175.01 67.8843L173.804 68.9122L175.104 74.3941L175.043 74.4461L169.836 72.2966L168.625 73.3293L174.753 75.6834L173.274 76.9449L173.865 77.6382L175.619 76.1427L176.419 77.081L174.667 78.5754L175.257 79.2673L177.009 77.7729L178.615 79.6561L179.68 78.7473L179.679 78.7486Z" fill="#ABED26"/>
<path d="M166.54 123.887L164.934 122.004L166.669 120.524L166.079 119.831L164.343 121.311L163.543 120.373L165.278 118.894L164.687 118.201L163.221 119.452L161.87 113.023L160.665 114.051L161.965 119.533L161.904 119.585L156.696 117.435L155.485 118.468L161.614 120.822L160.134 122.083L160.726 122.777L162.48 121.281L163.28 122.22L161.527 123.714L162.117 124.406L163.87 122.911L165.476 124.795L166.541 123.886L166.54 123.887Z" fill="#ABED26"/>
<path d="M132.773 30.598L133.656 30.9307C133.027 33.4472 134.094 35.4401 136.605 36.3865C137.121 36.5812 137.595 36.6954 138.04 36.7522L138.447 35.6725C138.008 35.6199 137.526 35.4866 137.016 35.2944C135.272 34.6369 134.522 33.2178 134.903 31.4018L138.239 32.6593L138.53 31.8886L135.137 30.6098L135.43 29.8324C135.464 29.7411 135.498 29.6506 135.539 29.5617L138.926 30.8384L139.217 30.0685L135.924 28.8272C136.84 27.3724 138.286 26.8863 139.95 27.5136C140.46 27.7059 140.91 27.923 141.272 28.18L141.679 27.1012C141.271 26.8196 140.828 26.591 140.362 26.4207C137.93 25.5041 135.868 26.2148 134.661 28.3502L133.749 28.0068L133.459 28.7775L134.298 29.0937L133.902 30.1443L133.063 29.8281L132.773 30.598Z" fill="#ABED26"/>
<path d="M162.901 38.5621L163.504 39.2882C161.712 41.1636 161.653 43.4234 163.366 45.4884C163.718 45.9132 164.074 46.247 164.433 46.5167L165.321 45.78C164.965 45.5168 164.612 45.1625 164.264 44.7431C163.074 43.3087 163.124 41.7041 164.354 40.3147L166.631 43.0586L167.265 42.5327L164.949 39.7423L165.589 39.2119C165.664 39.1495 165.738 39.0877 165.818 39.0309L168.129 41.8164L168.762 41.2911L166.515 38.5827C168.032 37.7721 169.528 38.0652 170.664 39.4341C171.012 39.8535 171.296 40.265 171.484 40.6676L172.371 39.9314C172.155 39.4846 171.884 39.0668 171.563 38.6882C169.904 36.6882 167.76 36.285 165.654 37.5432L165.032 36.7938L164.398 37.3198L164.971 38.0097L164.107 38.7266L163.534 38.0367L162.901 38.5621Z" fill="#ABED26"/>
<path d="M202.834 47.0638L203.436 47.7899C201.644 49.6653 201.585 51.9251 203.298 53.9901C203.651 54.4149 204.006 54.7487 204.365 55.0184L205.253 54.2817C204.897 54.0185 204.545 53.6642 204.197 53.2448C203.006 51.8104 203.057 50.2059 204.287 48.8164L206.563 51.5603L207.197 51.0344L204.882 48.244L205.521 47.7136C205.596 47.6512 205.671 47.5894 205.75 47.5326L208.062 50.3181L208.695 49.7928L206.448 47.0844C207.964 46.2738 209.461 46.5669 210.597 47.9358C210.945 48.3552 211.228 48.7667 211.416 49.1693L212.303 48.4331C212.088 47.9863 211.816 47.5685 211.496 47.1899C209.836 45.1899 207.692 44.7867 205.586 46.0449L204.965 45.2955L204.331 45.8215L204.903 46.5114L204.039 47.2283L203.467 46.5384L202.834 47.0638Z" fill="#ABED26"/>
<path d="M184.404 89.7056L185.29 90.0317C184.68 92.5528 185.762 94.5376 188.28 95.4649C188.798 95.6557 189.273 95.7663 189.718 95.8198L190.117 94.7371C189.677 94.6877 189.195 94.5581 188.683 94.3697C186.934 93.7255 186.173 92.3121 186.54 90.4933L189.886 91.7255L190.171 90.9526L186.768 89.6995L187.055 88.92C187.089 88.8283 187.123 88.7376 187.163 88.6484L190.559 89.8994L190.844 89.1273L187.541 87.911C188.447 86.4493 189.889 85.9523 191.558 86.567C192.069 86.7554 192.521 86.9691 192.885 87.2233L193.284 86.1415C192.873 85.863 192.429 85.6377 191.962 85.471C189.523 84.5728 187.466 85.2991 186.275 87.4436L185.361 87.1071L185.077 87.88L185.918 88.1898L185.53 89.2434L184.689 88.9335L184.404 89.7056Z" fill="#ABED26"/>
<path d="M151.423 22.6442C150.925 24.0227 151.548 25.4529 153.103 26.3199L152.655 27.2867L153.464 27.6608L153.911 26.694C155.737 27.3658 157.292 26.8698 157.977 25.3894C158.561 24.1252 158.166 23.054 156.799 21.9216L156.308 21.5139L157.706 18.491C158.535 18.9809 158.9 19.7327 158.717 20.5183L159.856 21.0456C160.316 19.7139 159.673 18.3083 158.169 17.49L158.613 16.5295L157.805 16.1554L157.351 17.1358C155.763 16.6232 154.275 17.1333 153.655 18.4722C153.12 19.6283 153.491 20.7929 154.645 21.7459L155.059 22.0935L153.576 25.2985C152.748 24.7513 152.366 23.9666 152.556 23.1682L151.423 22.6442ZM155.463 20.8105C154.751 20.2273 154.526 19.5807 154.817 18.9518C155.164 18.2012 155.966 17.8995 156.885 18.1439L155.599 20.9228L155.463 20.8105ZM156.008 22.8696C156.887 23.588 157.128 24.2168 156.793 24.9403C156.39 25.8126 155.48 26.0975 154.374 25.6929L155.77 22.6756L156.008 22.8688L156.008 22.8696Z" fill="#ABED26"/>
<path d="M122.25 48.5407C121.751 49.9192 122.374 51.3494 123.929 52.2164L123.482 53.1832L124.29 53.5573L124.738 52.5904C126.564 53.2623 128.118 52.7663 128.803 51.2858C129.388 50.0217 128.992 48.9505 127.625 47.8181L127.134 47.4104L128.533 44.3875C129.362 44.8774 129.727 45.6291 129.543 46.4148L130.683 46.9421C131.143 45.6104 130.5 44.2048 128.996 43.3865L129.44 42.426L128.631 42.0519L128.178 43.0323C126.59 42.5197 125.101 43.0298 124.482 44.3687C123.947 45.5248 124.317 46.6894 125.472 47.6424L125.885 47.99L124.403 51.195C123.574 50.6477 123.193 49.8631 123.382 49.0647L122.25 48.5407ZM126.29 46.707C125.578 46.1238 125.353 45.4772 125.643 44.8482C125.991 44.0977 126.793 43.796 127.711 44.0404L126.426 46.8193L126.29 46.707ZM126.835 48.766C127.714 49.4845 127.954 50.1133 127.62 50.8368C127.216 51.709 126.307 51.994 125.201 51.5894L126.597 48.5721L126.835 48.7653L126.835 48.766Z" fill="#ABED26"/>
<path d="M209.235 93.3199C208.736 94.6984 209.36 96.1286 210.914 96.9955L210.467 97.9624L211.276 98.3365L211.723 97.3696C213.549 98.0415 215.104 97.5455 215.789 96.065C216.373 94.8008 215.978 93.7297 214.61 92.5972L214.119 92.1896L215.518 89.1667C216.347 89.6566 216.712 90.4083 216.528 91.194L217.668 91.7212C218.128 90.3896 217.485 88.984 215.981 88.1656L216.425 87.2052L215.617 86.8311L215.163 87.8114C213.575 87.2988 212.086 87.8089 211.467 89.1479C210.932 90.3039 211.303 91.4686 212.457 92.4216L212.871 92.7692L211.388 95.9742C210.56 95.4269 210.178 94.6423 210.368 93.8439L209.235 93.3199ZM213.275 91.4862C212.563 90.903 212.338 90.2563 212.629 89.6274C212.976 88.8769 213.778 88.5752 214.697 88.8196L213.411 91.5984L213.275 91.4862ZM213.82 93.5452C214.699 94.2636 214.94 94.8925 214.605 95.616C214.202 96.4882 213.292 96.7732 212.186 96.3686L213.582 93.3512L213.82 93.5444L213.82 93.5452Z" fill="#ABED26"/>
<path d="M186.427 61.6528C185.363 62.661 185.278 64.2188 186.279 65.6913L185.445 66.3546L186 67.0518L186.833 66.3886C188.163 67.8084 189.775 68.0629 191.052 67.0474C192.142 66.1801 192.269 65.0453 191.555 63.4197L191.3 62.8351L193.906 60.7614C194.427 61.5714 194.416 62.4069 193.899 63.0265L194.681 64.0092C195.69 63.0256 195.746 61.4809 194.769 60.0747L195.597 59.4158L195.042 58.7185L194.197 59.3911C193.008 58.2203 191.449 58.008 190.294 58.9265C189.298 59.7195 189.106 60.9265 189.71 62.2963L189.923 62.7925L187.16 64.9911C186.665 64.1303 186.677 63.2579 187.204 62.6295L186.427 61.6528ZM190.861 61.8274C190.486 60.9867 190.575 60.3079 191.117 59.8764C191.765 59.3615 192.617 59.452 193.328 60.0827L190.932 61.9889L190.861 61.8274ZM190.423 63.912C190.887 64.9486 190.82 65.6186 190.196 66.115C189.444 66.7133 188.503 66.5598 187.696 65.7019L190.298 63.632L190.424 63.9115L190.423 63.912Z" fill="#ABED26"/>
<path d="M158.989 59.5713C157.704 60.2764 157.226 61.7616 157.82 63.4398L156.845 63.8698L157.205 64.685L158.18 64.255C159.106 65.9659 160.6 66.6213 162.093 65.9629C163.367 65.4007 163.778 64.3353 163.501 62.5819L163.402 61.9515L166.449 60.6072C166.748 61.523 166.524 62.3283 165.867 62.7965L166.374 63.9454C167.599 63.25 168.046 61.7701 167.458 60.1621L168.426 59.7349L168.067 58.9197L167.078 59.3557C166.226 57.9215 164.771 57.3203 163.421 57.9158C162.256 58.4299 161.764 59.5487 162.001 61.0269L162.081 61.561L158.85 62.9862C158.59 62.0281 158.823 61.1871 159.493 60.7132L158.989 59.5713ZM163.233 60.8654C163.084 59.9572 163.342 59.3232 163.976 59.0435C164.733 58.7097 165.534 59.0135 166.062 59.804L163.261 61.0398L163.233 60.8654ZM162.281 62.7708C162.466 63.8909 162.231 64.522 161.501 64.8438C160.622 65.2317 159.751 64.8445 159.189 63.8099L162.23 62.4681L162.282 62.7705L162.281 62.7708Z" fill="#ABED26"/>
<path d="M145.946 54.1051L146.614 51.7221L148.81 52.3378L149.055 51.4613L146.859 50.8456L147.192 49.6582L149.387 50.2736L149.633 49.3971L147.777 48.8768L152.362 44.1719L150.836 43.7443L147.01 47.8796L146.933 47.858L145.814 42.3363L144.282 41.9066L145.744 48.3067L143.872 47.7819L143.626 48.6593L145.845 49.2815L145.512 50.469L143.295 49.8473L143.049 50.7229L145.267 51.3446L144.599 53.7275L145.947 54.1056L145.946 54.1051Z" fill="#ABED26"/>
<path d="M179.811 50.7285L181.914 49.4249L183.116 51.3636L183.89 50.8841L182.688 48.9454L183.736 48.2959L184.937 50.2337L185.711 49.7542L184.696 48.116L191.255 47.7504L190.42 46.4039L184.805 46.8625L184.763 46.7944L187.673 41.9702L186.835 40.6173L183.584 46.3208L182.559 44.6683L181.785 45.1483L182.999 47.1075L181.951 47.7571L180.738 45.7994L179.965 46.2784L181.178 48.2361L179.074 49.5397L179.812 50.7301L179.811 50.7285Z" fill="#ABED26"/>
<path d="M200.95 82.7397L201.804 80.417L203.945 81.2044L204.259 80.3501L202.119 79.5627L202.544 78.4053L204.684 79.1924L204.998 78.3381L203.189 77.6727L208.132 73.3451L206.645 72.7981L202.504 76.6179L202.428 76.5902L201.75 70.9974L200.256 70.4479L201.207 76.9436L199.383 76.2724L199.068 77.1276L201.231 77.9234L200.806 79.0807L198.644 78.2856L198.33 79.1391L200.492 79.9342L199.637 82.2569L200.952 82.7404L200.95 82.7397Z" fill="#ABED26"/>
<path d="M30.4427 48.5356L31.3023 48.1469C32.6365 50.3714 34.8001 51.0266 37.2449 49.9211C37.7479 49.6936 38.1638 49.4393 38.5189 49.1648L38.0436 48.1135C37.6956 48.3867 37.2606 48.6331 36.764 48.8576C35.0657 49.6256 33.5317 49.1522 32.5174 47.5984L35.7662 46.1295L35.4268 45.379L32.1231 46.8728L31.7808 46.1159C31.7406 46.0269 31.7007 45.9387 31.667 45.8469L34.965 44.3556L34.626 43.6059L31.4194 45.0559C31.0391 43.379 31.7181 42.0132 33.3388 41.2804C33.8353 41.0558 34.3073 40.8911 34.7452 40.8168L34.2702 39.7663C33.7822 39.856 33.3075 40.0071 32.8575 40.2161C30.4895 41.2868 29.5332 43.2476 30.1889 45.6113L29.3017 46.0124L29.6411 46.7629L30.4579 46.3936L30.9205 47.4166L30.1037 47.7859L30.4427 48.5356Z" fill="#ABED26"/>
<path d="M57.3823 32.8704L58.3217 32.9581C58.3801 35.5513 59.9358 37.1914 62.6074 37.4408C63.1571 37.4921 63.6443 37.477 64.0887 37.4142L64.196 36.2653C63.7584 36.3306 63.2585 36.3294 62.7158 36.2787C60.86 36.1055 59.7614 34.935 59.649 33.0829L63.199 33.4142L63.2755 32.5942L59.6654 32.2572L59.7427 31.43C59.7517 31.3328 59.7607 31.2365 59.7769 31.14L63.3807 31.4764L63.4572 30.6572L59.9532 30.3301C60.4526 28.6848 61.7186 27.834 63.4896 27.9993C64.0322 28.05 64.5238 28.1404 64.9411 28.2926L65.0482 27.1447C64.5798 26.9811 64.0926 26.8775 63.5981 26.8364C61.0105 26.5948 59.2091 27.8253 58.6091 30.2037L57.6397 30.1132L57.5631 30.9333L58.4557 31.0166L58.3513 32.1345L57.4588 32.0512L57.3823 32.8704Z" fill="#ABED26"/>
<path d="M98.6022 53.2442L99.4589 52.8489C100.81 55.0632 102.978 55.702 105.415 54.5781C105.916 54.3468 106.33 54.0894 106.683 53.8121L106.2 52.7644C105.854 53.0403 105.421 53.29 104.926 53.5183C103.233 54.2991 101.696 53.8374 100.67 52.2913L103.907 50.7978L103.562 50.0499L100.27 51.5687L99.922 50.8143C99.8811 50.7257 99.8406 50.6378 99.8061 50.5462L103.093 49.03L102.748 48.2829L99.5526 49.7571C99.1596 48.0832 99.8282 46.7123 101.443 45.9672C101.938 45.7389 102.409 45.5706 102.846 45.493L102.363 44.4461C101.876 44.5395 101.402 44.6942 100.954 44.9066C98.5942 45.9952 97.6527 47.9632 98.3263 50.3218L97.4422 50.7297L97.7872 51.4776L98.6013 51.102L99.0716 52.1215L98.2576 52.4971L98.6022 53.2442Z" fill="#ABED26"/>
<path d="M38.0113 29.726C38.6332 31.0533 40.085 31.6244 41.7976 31.1385L42.1647 32.1385L43.0011 31.8314L42.634 30.8314C44.4004 30.0159 45.1494 28.566 44.5872 27.0348C44.1072 25.7272 43.07 25.2494 41.3026 25.4148L40.6671 25.4736L39.5193 22.3469C40.4523 22.107 41.2417 22.3809 41.6672 23.0664L42.846 22.6337C42.2298 21.3667 40.7814 20.8271 39.1392 21.3115L38.7745 20.318L37.9381 20.6251L38.3103 21.6391C36.8248 22.3991 36.1324 23.8123 36.6408 25.1972C37.0798 26.3929 38.1651 26.9548 39.6554 26.8127L40.1935 26.7664L41.4105 30.0814C40.4377 30.2798 39.6132 29.9946 39.1829 29.2959L38.0113 29.726ZM39.5725 25.573C38.6567 25.6638 38.0403 25.3656 37.8015 24.7151C37.5165 23.9388 37.8707 23.1583 38.6931 22.6819L39.7483 25.5561L39.5725 25.573ZM41.4135 26.6442C42.5431 26.5309 43.158 26.8054 43.4328 27.5537C43.764 28.4559 43.3223 29.3002 42.2539 29.796L41.1082 26.6751L41.4132 26.6433L41.4135 26.6442Z" fill="#ABED26"/>
<path d="M35.6836 68.6659C36.3056 69.9933 37.7574 70.5643 39.47 70.0784L39.8371 71.0784L40.6735 70.7714L40.3064 69.7713C42.0727 68.9559 42.8217 67.506 42.2596 65.9747C41.7796 64.6671 40.7424 64.1893 38.9749 64.3547L38.3395 64.4135L37.1917 61.2868C38.1246 61.047 38.914 61.3208 39.3395 62.0064L40.5184 61.5736C39.9022 60.3067 38.4538 59.7671 36.8116 60.2514L36.4469 59.258L35.6104 59.565L35.9827 60.579C34.4972 61.339 33.8048 62.7522 34.3132 64.1371C34.7521 65.3329 35.8375 65.8947 37.3278 65.7527L37.8659 65.7063L39.0828 69.0213C38.1101 69.2198 37.2856 68.9346 36.8552 68.2358L35.6836 68.6659ZM37.2449 64.513C36.3291 64.6037 35.7127 64.3055 35.4739 63.655C35.1889 62.8787 35.543 62.0983 36.3655 61.6218L37.4206 64.496L37.2449 64.513ZM39.0859 65.5841C40.2155 65.4709 40.8304 65.7453 41.1051 66.4937C41.4363 67.3958 40.9946 68.2402 39.9263 68.736L38.7806 65.615L39.0856 65.5833L39.0859 65.5841Z" fill="#ABED26"/>
<path d="M86.6766 37.0671C86.6367 38.5324 87.6777 39.6943 89.4262 40.0287L89.3055 41.0871L90.1907 41.1881L90.3115 40.1297C92.2559 40.1937 93.576 39.2342 93.7609 37.6135C93.9188 36.2296 93.2064 35.3371 91.5527 34.6917L90.9585 34.459L91.3361 31.1497C92.2774 31.3541 92.86 31.9532 92.9325 32.7568L94.1802 32.8991C94.1982 31.4904 93.146 30.3581 91.4611 30.0539L91.5811 29.0025L90.6958 28.9015L90.5734 29.9747C88.9048 29.9871 87.6518 30.9392 87.4845 32.405C87.3401 33.6706 88.0578 34.6597 89.4534 35.2016L89.955 35.4017L89.5547 38.9103C88.5964 38.6511 87.9876 38.0261 87.9166 37.2086L86.6766 37.0671ZM89.9357 34.0566C89.0765 33.7267 88.6596 33.1836 88.7382 32.4951C88.8319 31.6735 89.4986 31.135 90.4474 31.0783L90.1004 34.1204L89.9357 34.0566ZM91.1001 35.8401C92.1604 36.2459 92.5867 36.7671 92.4963 37.5592C92.3874 38.514 91.6137 39.0703 90.4365 39.0338L90.8134 35.7307L91.1002 35.8392L91.1001 35.8401Z" fill="#ABED26"/>
<path d="M69.4671 50.4961C69.0565 51.9033 69.7686 53.2914 71.375 54.0586L70.9895 55.0517L71.8202 55.3741L72.2056 54.381C74.0701 54.9364 75.5905 54.3434 76.1807 52.8227C76.6847 51.5242 76.2221 50.4801 74.7864 49.4361L74.2707 49.0602L75.4758 45.9552C76.3345 46.3918 76.7459 47.1191 76.6121 47.9148L77.7828 48.3691C78.1578 47.0111 77.4274 45.6489 75.8749 44.9269L76.2578 43.9404L75.4272 43.618L75.0364 44.625C73.4193 44.2135 71.9656 44.8164 71.4318 46.1917C70.9709 47.3792 71.4141 48.5182 72.6264 49.3965L73.0608 49.7174L71.7831 53.0095C70.9219 52.5155 70.4917 51.7565 70.6306 50.9477L69.4671 50.4961ZM73.3835 48.4114C72.6362 47.8743 72.3708 47.2431 72.6215 46.5971C72.9207 45.8261 73.7023 45.4745 74.6344 45.6606L73.5266 48.5149L73.3835 48.4114ZM74.0572 50.432C74.9797 51.0936 75.2598 51.706 74.9713 52.4492C74.6236 53.3451 73.7341 53.6868 72.6047 53.3528L73.8076 50.2534L74.0575 50.4312L74.0572 50.432Z" fill="#ABED26"/>
<path d="M56.3772 55.8503L55.1652 53.6925L57.1536 52.5756L56.7078 51.7819L54.7194 52.8988L54.1154 51.8237L56.1031 50.7072L55.6572 49.9135L53.9769 50.8574L53.8934 44.2889L52.5123 45.0647L52.7293 50.6944L52.6594 50.7337L47.9647 47.6191L46.577 48.3986L52.1356 51.8916L50.4406 52.8437L50.8869 53.6382L52.8965 52.5094L53.5004 53.5846L51.4925 54.7125L51.9378 55.5053L53.9458 54.3775L55.1578 56.5352L56.3788 55.8493L56.3772 55.8503Z" fill="#ABED26"/>
<path d="M24.8002 73.5614L23.5881 71.4037L25.5766 70.2868L25.1308 69.4931L23.1423 70.61L22.5384 69.5348L24.526 68.4184L24.0802 67.6247L22.3999 68.5686L22.3164 62.0001L20.9352 62.7759L21.1523 68.4056L21.0824 68.4448L16.3877 65.3303L15 66.1097L20.5586 69.6028L18.8636 70.5549L19.3099 71.3494L21.3195 70.2206L21.9234 71.2958L19.9154 72.4237L20.3608 73.2165L22.3687 72.0886L23.5808 74.2464L24.8018 73.5605L24.8002 73.5614Z" fill="#ABED26"/>
<path d="M77.9431 29.5224L78.5095 27.1133L80.7297 27.6352L80.938 26.7491L78.7179 26.2271L79.0001 25.0267L81.2193 25.5484L81.4277 24.6623L79.5515 24.2212L83.9322 19.3261L82.3901 18.9635L78.7427 23.2574L78.6647 23.239L77.3127 17.7698L75.7633 17.4055L77.4957 23.7378L75.6032 23.2929L75.3947 24.18L77.6384 24.7075L77.3562 25.9079L75.1143 25.3809L74.9062 26.2661L77.1481 26.7932L76.5817 29.2023L77.9449 29.5229L77.9431 29.5224Z" fill="#ABED26"/>
<path d="M115.524 37.2202L114.487 34.9734L116.557 34.0172L116.175 33.1907L114.105 34.1469L113.588 33.0273L115.658 32.0716L115.276 31.2451L113.526 32.0531L113.962 25.4986L112.524 26.1628L112.295 31.792L112.223 31.8256L107.789 28.3496L106.344 29.0168L111.609 32.9386L109.844 33.7536L110.226 34.5809L112.319 33.6146L112.836 34.7341L110.745 35.6997L111.126 36.5253L113.217 35.5597L114.254 37.8066L115.526 37.2194L115.524 37.2202Z" fill="#ABED26"/>
<defs>
<filter id="filter0_b_59_885" x="8.76453" y="11.1354" width="219.055" height="139.166" filterUnits="userSpaceOnUse" color-interpolation-filters="sRGB">
<feFlood flood-opacity="0" result="BackgroundImageFix"/>
<feGaussianBlur in="BackgroundImageFix" stdDeviation="2"/>
<feComposite in2="SourceAlpha" operator="in" result="effect1_backgroundBlur_59_885"/>
<feBlend mode="normal" in="SourceGraphic" in2="effect1_backgroundBlur_59_885" result="shape"/>
</filter>
</defs>
</svg>
